<?xml version="1.0" encoding="utf-8"?>
<svg viewBox="8.441 219.145 828.863 283.695" xmlns="http://www.w3.org/2000/svg">
  <g id="#e44745ff" transform="matrix(0.679823, 0, 0, 0.679823, -110.371484, 106.122301)" style="">
    <path fill="#e44745" stroke="#e44745" stroke-width="0.09375" opacity="1.00" d=" M 272.80 223.82 C 281.50 213.75 298.08 212.25 308.46 220.58 C 316.80 226.73 320.61 237.88 318.27 247.91 C 334.66 255.50 351.05 263.09 367.43 270.72 C 371.51 263.47 378.69 257.87 387.05 256.76 C 398.02 254.90 409.70 260.92 414.57 270.92 C 431.75 263.38 448.73 255.37 465.87 247.74 C 464.15 239.41 466.25 230.28 472.09 223.98 C 478.32 216.75 488.64 213.63 497.88 215.83 C 509.70 218.41 518.78 229.93 518.29 242.07 C 518.42 253.06 510.82 263.11 500.69 266.94 C 502.54 280.88 504.58 294.79 506.43 308.73 C 513.31 310.96 519.56 315.53 522.86 322.08 C 527.84 331.17 526.75 343.11 520.16 351.12 C 513.73 359.51 502.16 362.95 492.07 360.11 C 466.60 393.46 441.44 427.04 416.06 460.45 C 417.56 464.47 418.84 468.68 418.59 473.03 C 418.48 482.60 412.62 491.79 404.04 496.02 C 395.75 500.29 385.21 499.64 377.47 494.45 C 366.99 487.72 362.77 473.46 367.51 462.00 C 342.02 427.52 316.40 393.14 290.89 358.67 C 284.96 361.17 278.22 361.88 272.01 360.03 C 262.51 357.32 255.02 348.84 253.41 339.11 C 251.74 330.28 255.04 320.73 261.75 314.77 C 266.14 310.64 271.99 308.48 277.92 307.85 C 279.73 294.20 281.71 280.58 283.55 266.94 C 277.68 264.48 272.34 260.41 269.29 254.73 C 263.75 245.05 265.16 231.99 272.80 223.82 M 288.40 224.48 C 280.79 226.15 274.92 233.34 274.75 241.13 C 274.30 248.94 279.76 256.52 287.24 258.73 C 294.36 261.07 302.75 258.10 306.89 251.88 C 310.62 246.74 310.99 239.59 308.25 233.92 C 304.85 226.69 296.18 222.53 288.40 224.48 M 487.42 224.58 C 479.31 226.54 473.42 234.77 474.21 243.08 C 474.66 253.16 485.06 261.40 495.00 259.23 C 504.50 257.67 511.42 247.47 509.08 238.06 C 507.32 228.51 496.79 221.89 487.42 224.58 M 307.18 263.99 C 316.00 285.76 324.77 307.54 333.70 329.26 C 372.41 329.20 411.12 329.32 449.83 329.20 C 458.80 307.42 467.90 285.69 476.87 263.91 C 474.48 261.92 472.27 259.75 470.22 257.42 C 452.67 265.40 435.11 273.36 417.57 281.36 C 418.25 292.26 411.77 303.24 401.62 307.44 C 391.23 312.19 378.00 309.08 370.78 300.25 C 366.26 294.99 364.23 288.00 364.45 281.13 C 347.66 273.14 330.74 265.40 313.85 257.60 C 311.81 259.91 309.57 262.05 307.18 263.99 M 387.42 265.67 C 378.02 267.43 371.30 277.76 373.84 287.05 C 375.51 294.85 383.00 300.88 391.00 300.76 C 398.14 300.92 404.98 296.17 407.45 289.50 C 409.55 284.43 409.02 278.45 406.15 273.79 C 402.40 267.55 394.55 264.05 387.42 265.67 M 294.09 268.17 C 292.20 281.88 290.28 295.59 288.39 309.30 C 297.11 312.53 303.64 320.24 305.71 329.27 C 311.20 329.24 316.69 329.26 322.19 329.24 C 314.05 309.17 305.90 289.10 297.76 269.04 C 297.31 267.39 295.24 268.41 294.09 268.17 M 461.32 329.26 C 465.30 329.24 469.28 329.24 473.27 329.29 C 475.64 318.52 484.66 309.72 495.65 308.12 C 493.86 294.85 491.99 281.60 490.14 268.35 C 489.30 268.23 487.61 268.00 486.76 267.88 C 478.22 288.31 469.73 308.77 461.32 329.26 M 274.36 317.58 C 269.54 319.03 265.46 322.71 263.39 327.28 C 260.19 334.22 262.21 343.03 268.04 347.94 C 273.97 353.23 283.57 353.66 289.90 348.84 C 296.51 344.19 299.24 334.69 295.68 327.35 C 292.31 319.41 282.63 314.63 274.36 317.58 M 494.39 317.51 C 487.19 319.55 481.83 326.56 481.74 334.04 C 481.22 344.18 490.81 353.42 500.96 352.15 C 510.39 351.56 518.04 342.39 517.04 333.02 C 516.58 322.23 504.66 313.94 494.39 317.51 M 299.37 352.25 C 322.91 383.99 346.33 415.84 370.10 447.41 C 355.59 411.49 341.09 375.55 326.35 339.72 C 319.47 339.78 312.59 339.77 305.71 339.72 C 304.49 344.30 302.40 348.60 299.37 352.25 M 337.91 339.77 C 352.50 375.72 367.09 411.67 381.68 447.62 C 387.83 445.29 394.65 445.03 400.91 447.05 C 415.79 411.30 430.61 375.53 445.41 339.76 C 409.58 339.76 373.74 339.74 337.91 339.77 M 456.93 339.76 C 441.93 375.87 426.92 411.98 412.01 448.12 C 435.61 417.16 459.02 386.06 482.49 355.00 C 477.77 351.08 474.94 345.49 473.22 339.69 C 467.79 339.81 462.36 339.73 456.93 339.76 M 386.39 455.45 C 378.11 458.15 372.82 467.53 374.88 476.01 C 376.36 483.53 383.27 489.54 390.93 489.92 C 398.72 490.58 406.46 485.37 408.83 477.94 C 410.96 471.86 409.42 464.73 404.97 460.07 C 400.42 455.03 392.77 453.18 386.39 455.45 Z"/>
  </g>
  <g id="#ffffffff" transform="matrix(1, 0, 0, 1, 171.740008, -217.512714)">
    <path stroke="#ffffff" stroke-width="0.09375" opacity="1.00" d=" M 248.52 542.50 C 257.19 537.40 268.08 536.81 277.60 539.70 C 284.37 541.74 290.08 546.61 293.36 552.85 C 296.88 561.28 296.59 571.60 291.25 579.23 C 286.15 586.76 276.95 590.50 268.09 590.88 C 256.41 591.71 243.58 586.34 238.61 575.20 C 237.99 573.14 237.33 571.10 236.69 569.07 C 236.36 564.62 236.44 560.13 237.69 555.81 C 239.77 550.37 243.42 545.44 248.52 542.50 M 254.59 550.68 C 246.08 555.88 245.11 569.06 252.01 575.97 C 261.07 584.86 279.51 582.64 284.02 569.97 C 285.02 564.94 285.26 559.15 281.97 554.86 C 275.93 546.45 263.02 545.61 254.59 550.68 Z" style="fill: rgb(2, 2, 2);"/>
    <path stroke="#ffffff" stroke-width="0.09375" opacity="1.00" d=" M 305.06 555.04 C 308.59 545.46 318.33 539.71 328.10 538.46 C 337.78 537.33 348.25 538.43 356.55 543.92 C 356.13 544.09 355.30 544.43 354.88 544.60 C 353.61 546.76 352.47 549.00 351.09 551.11 C 343.10 547.73 333.82 546.23 325.51 549.32 C 319.90 551.38 314.78 556.70 315.22 563.03 C 314.85 567.33 315.83 571.89 318.98 575.01 C 324.73 581.09 333.87 582.04 341.73 580.76 C 345.65 580.15 349.13 578.12 352.96 577.18 C 354.23 579.99 355.86 582.60 357.67 585.11 C 346.71 591.38 333.06 592.61 321.11 588.59 C 314.44 586.36 308.72 581.52 305.65 575.17 C 305.04 573.12 304.38 571.08 303.73 569.05 C 303.28 564.33 303.40 559.53 305.06 555.04 Z" style="fill: rgb(2, 2, 2);"/>
    <path stroke="#ffffff" stroke-width="0.09375" opacity="1.00" d=" M 405.70 538.62 C 410.20 538.67 414.71 538.56 419.21 538.73 C 411.16 547.08 402.58 554.93 394.29 563.05 C 400.70 571.02 408.43 578.07 415.27 585.76 C 416.54 587.26 418.05 588.54 419.73 589.58 C 414.82 590.19 409.84 590.15 404.92 589.83 C 398.31 583.89 392.66 576.91 386.01 571.00 C 383.62 574.33 377.86 576.46 378.86 581.21 L 379.78 582.00 C 377.47 583.77 379.18 587.30 379.39 589.71 C 375.50 590.14 371.57 590.09 367.68 589.79 C 367.86 577.43 367.57 565.06 367.81 552.71 L 368.96 552.00 C 366.46 550.39 368.11 546.35 367.84 543.75 L 368.83 543.01 C 367.03 542.36 367.17 539.44 368.77 538.71 C 372.07 538.51 375.39 538.67 378.70 538.65 C 379.02 540.40 377.90 542.92 379.77 544.00 L 378.86 544.79 C 378.38 549.16 379.03 553.55 378.85 557.94 C 378.53 560.19 378.95 562.41 379.50 564.60 C 382.42 560.85 386.16 557.87 389.44 554.45 C 394.88 549.20 400.09 543.69 405.70 538.62 Z" style="fill: rgb(2, 2, 2);"/>
    <path stroke="#ffffff" stroke-width="0.09375" opacity="1.00" d=" M 128.27 538.65 C 137.51 538.66 146.75 538.58 155.99 538.68 C 162.11 538.83 168.99 539.93 173.12 544.94 C 177.02 549.61 176.19 556.57 173.07 561.43 C 181.00 566.38 182.01 578.98 175.38 585.39 C 171.51 588.87 166.09 590.11 161.00 590.01 C 150.09 589.98 139.17 590.03 128.26 589.98 C 128.29 572.87 128.27 555.76 128.27 538.65 M 138.81 548.11 C 138.85 549.40 138.88 550.69 138.91 551.99 C 138.80 554.09 138.85 556.20 139.28 558.27 C 146.87 558.08 154.46 558.19 162.05 558.28 C 163.19 557.57 163.61 556.20 164.32 555.15 C 164.34 554.32 164.37 553.50 164.40 552.69 C 163.14 549.22 159.37 548.06 156.01 548.03 C 150.27 547.96 144.54 547.94 138.81 548.11 M 139.17 567.47 C 138.42 571.83 139.09 576.43 138.84 580.90 C 145.56 581.09 152.28 580.98 159.00 581.00 C 162.06 581.07 165.03 580.06 167.35 578.07 C 167.77 576.40 168.13 574.72 168.38 573.03 C 167.97 572.06 167.59 571.09 167.23 570.12 C 165.33 568.20 162.69 567.28 160.02 567.37 C 153.07 567.41 146.11 567.22 139.17 567.47 Z" style="fill: rgb(2, 2, 2);"/>
    <path stroke="#ffffff" stroke-width="0.09375" opacity="1.00" d=" M 189.52 538.67 C 193.18 538.62 196.84 538.62 200.50 538.66 C 200.49 552.74 200.55 566.83 200.47 580.91 C 210.39 581.16 220.33 580.83 230.25 581.10 C 230.23 584.03 230.23 586.96 230.25 589.90 C 216.67 590.08 203.08 590.03 189.49 589.93 C 189.56 572.84 189.50 555.75 189.52 538.67 Z" style="fill: rgb(2, 2, 2);"/>
    <path stroke="#ffffff" stroke-width="0.09375" opacity="1.00" d=" M 423.60 539.27 C 425.04 538.81 426.52 538.49 428.06 538.61 C 442.16 538.70 456.27 538.57 470.38 538.68 C 470.37 541.74 470.37 544.81 470.42 547.87 C 458.49 548.26 446.56 547.70 434.64 548.18 C 434.72 552.35 434.75 556.53 434.59 560.70 C 444.57 561.79 454.68 560.87 464.72 561.19 C 464.71 564.10 464.71 567.01 464.73 569.93 C 454.70 570.10 444.66 569.65 434.64 570.19 C 434.76 576.78 434.65 583.37 434.71 589.97 C 431.03 590.02 427.35 590.06 423.68 589.82 C 423.70 572.97 423.86 556.11 423.60 539.27 Z" style="fill: rgb(2, 2, 2);"/>
    <path stroke="#ffffff" stroke-width="0.09375" opacity="1.00" d=" M 479.48 589.93 C 479.55 572.84 479.48 555.75 479.52 538.66 C 494.20 538.62 508.89 538.63 523.58 538.65 C 523.57 541.75 523.57 544.85 523.59 547.96 C 512.55 548.05 501.51 547.98 490.48 548.00 C 490.47 551.35 490.47 554.70 490.48 558.05 C 500.22 558.06 509.96 558.02 519.71 558.08 C 519.69 561.02 519.69 563.97 519.71 566.92 C 509.96 566.98 500.22 566.94 490.48 566.94 C 490.47 571.62 490.48 576.31 490.47 580.99 C 501.80 581.07 513.13 580.87 524.46 581.10 C 524.41 584.03 524.41 586.96 524.46 589.90 C 509.47 590.09 494.47 590.02 479.48 589.93 Z" style="fill: rgb(2, 2, 2);"/>
    <path stroke="#ffffff" stroke-width="0.09375" opacity="1.00" d=" M 535.27 589.99 C 535.29 572.87 535.25 555.76 535.29 538.64 C 539.08 538.87 543.07 538.04 546.75 539.18 C 557.07 544.36 567.17 549.96 577.51 555.09 C 577.49 549.61 577.49 544.13 577.51 538.65 C 581.16 538.63 584.82 538.62 588.48 538.67 C 588.50 555.75 588.44 572.84 588.51 589.93 C 584.83 590.02 581.15 590.02 577.48 589.96 C 577.53 582.19 577.46 574.43 577.52 566.67 C 567.10 561.22 556.61 555.91 546.26 550.34 C 546.28 563.50 546.20 576.66 546.31 589.81 C 542.63 590.06 538.94 590.02 535.27 589.99 Z" style="fill: rgb(2, 2, 2);"/>
    <path stroke="#ffffff" stroke-width="0.09375" opacity="1.00" d=" M 602.31 589.99 C 602.33 572.87 602.29 555.76 602.32 538.64 C 614.42 539.07 627.06 537.19 638.66 541.52 C 645.63 543.97 651.19 549.88 653.02 557.06 C 654.26 563.94 654.05 571.49 650.24 577.58 C 645.45 585.55 635.92 589.18 627.04 589.91 C 618.80 590.13 610.55 589.94 602.31 589.99 M 613.30 547.95 C 613.29 558.96 613.30 569.98 613.29 580.99 C 621.42 580.86 630.82 582.23 637.47 576.43 C 644.45 569.65 644.00 555.87 635.24 550.74 C 628.57 546.93 620.63 548.14 613.30 547.95 Z" style="fill: rgb(2, 2, 2);"/>
  </g>
</svg>